<?xml version="1.0" encoding="UTF-8"?>
<svg width="38px" height="31px" viewBox="0 0 38 31" version="1.1" xmlns="http://www.w3.org/2000/svg" xmlns:xlink="http://www.w3.org/1999/xlink">
    <!-- Generator: sketchtool 50.2 (55047) - http://www.bohemiancoding.com/sketch -->
    <title>33C43831-A287-427D-ABE2-209DE3D7E1FF</title>
    <desc>Created with sketchtool.</desc>
    <defs></defs>
    <g id="Page-1" stroke="none" stroke-width="1" fill="none" fill-rule="evenodd">
        <g id="Header-12-(light)" transform="translate(-681.000000, -1573.000000)" fill="#CCCCCC">
            <g id="Testimonials-6-(light)" transform="translate(0.000000, 1500.000000)">
                <g id="Group-5" transform="translate(360.000000, 73.000000)">
                    <path d="M335.271382,16.3586175 L335.271382,30.46 L321.17,30.46 L321.17,20.5060829 C321.17,16.6350959 321.815155,13.0867442 323.105484,9.86092166 C324.395813,6.63509908 326.56169,3.50148986 329.60318,0.46 L334.856636,4.60746544 C331.262148,8.57061889 329.234518,12.4876304 328.773687,16.3586175 L335.271382,16.3586175 Z M358.220691,16.3586175 L358.220691,30.46 L344.119309,30.46 L344.119309,20.5060829 C344.119309,16.6350959 344.764464,13.0867442 346.054793,9.86092166 C347.345122,6.63509908 349.510999,3.50148986 352.552488,0.46 L357.805945,4.60746544 C354.211457,8.57061889 352.183827,12.4876304 351.722995,16.3586175 L358.220691,16.3586175 Z" id="“"></path>
                </g>
            </g>
        </g>
    </g>
</svg>