<svg id="Layer_1" data-name="Layer 1" xmlns="http://www.w3.org/2000/svg" viewBox="0 0 720.18 142.1">
  <title>sseries</title>
  <g>
    <path fill="#fff" d="M76.94,21.54c0-2-.07-4,0-6a10,10,0,0,1,9.78-10c6-.31,10.67,3.07,11.4,8.8a70.5,70.5,0,0,1,.3,12c-.15,3.45.71,5.14,4.44,6.22,23.21,6.65,37.57,22,42.58,45.59,7.42,34.92-20.68,69.41-56.31,69.51-28.67.08-50.91-16.53-58.63-44.18-.91-3.25-2.33-3.81-5.14-3.7-3.66.15-7.34.16-11,0-6-.29-10.05-4.41-10.28-10.11C3.86,83.56,7.61,79,13.75,78.44a78.28,78.28,0,0,1,11.48-.14c3.19.18,4.48-.82,5.42-4.09,6-21.13,19.57-35.29,40.76-41.38C76.2,31.45,77.59,29.46,77,25A24.27,24.27,0,0,1,76.94,21.54Zm9,104.54c19.47,1.54,37.14-14.28,38.94-34.86C126.6,71.49,110.39,53.6,89.26,51.9,69.71,50.34,52.1,66.4,50.34,87.41,48.71,106.83,64.9,124.42,85.94,126.08Z" transform="translate(-4.09 -5.54)"/>
    <path fill="#fff" d="M640.67,69.46c-6.33,0-12.66.12-19,0-3.11-.08-3.25,1.34-2.58,3.68,2,6.9,10.64,10.57,17.05,6.3,3.88-2.58,7.6-2.69,11.69-2.7,3.5,0,7,.09,10.49,0,2.82-.1,3.1.92,1.91,3.22C655.5,89.12,647.52,94,637.68,95.33c-12.24,1.7-24.2.58-33.31-9.12-9.43-10-10.51-22.1-5.79-34.42,4.59-12,14.06-18.23,26.83-19.14a48.72,48.72,0,0,1,11.45.43c16.63,2.8,27.4,16.9,25.84,33.75-.09,1-2,2.48-3.05,2.52C653.33,69.58,647,69.46,640.67,69.46ZM629.53,57.23c2.32,0,4.64.05,7,0,4.07-.12,4.62-1.18,2.57-4.78-3.85-6.76-14.71-6.75-18.78,0-2.25,3.75-1.71,4.7,2.78,4.78C625.22,57.27,627.38,57.24,629.53,57.23Z" transform="translate(-4.09 -5.54)"/>
    <path fill="#fff" d="M494.76,69.46c-6,0-12,.19-18-.06-4.22-.17-4.41,1.54-3,4.76,2.71,6.38,10.67,9.34,16.76,5.2,3.71-2.53,7.28-2.66,11.22-2.65,3.5,0,7,.11,10.49,0,2.83-.12,4.05.84,2.08,3.27-3,3.69-5.79,7.91-9.63,10.49-14.9,10-38.9,6.52-48.44-6.94-7.59-10.71-8-22.45-2.35-34.07,5.47-11.16,15-16.69,27.36-16.78a55.42,55.42,0,0,1,14.32,1.5c13.59,3.56,23,18.19,21.32,32.84-.1.93-2,2.33-3.14,2.37C507.42,69.58,501.09,69.46,494.76,69.46ZM483.39,57.22v0c2.49,0,5-.11,7.47,0,3.46.19,4.09-1.26,2.75-4.17-1.81-4-5.66-6-10.71-5.57-4.59.37-7.81,2.68-9.3,7-.21.61,1.1,2.47,1.85,2.57A64.93,64.93,0,0,0,483.39,57.22Z" transform="translate(-4.09 -5.54)"/>
    <path fill="#fff" d="M399.53,74.55c2,0,4,.06,6,0,2.74-.1,4.78,0,6.31,3.26,2.11,4.43,9.8,5.24,13.65,2.08,2.61-2.14,2.23-5.31-1.21-6.63-3.23-1.24-6.77-1.61-10.12-2.58-5.4-1.57-11.13-2.58-16.06-5.13-11-5.68-11.45-20.52-1.3-27.68s33.36-7.34,43.48-.25a15.18,15.18,0,0,1,4.83,4.93c1.34,2.56,1.79,5.59,2.62,8.41-2.4.23-4.79.54-7.2.66s-4.66,0-7,0c-3.37,0-6.4.44-8.91-3.45-1.25-1.93-5.85-2.08-9-2.22-1.13-.05-3,2.12-3.33,3.56-.22.9,1.54,3,2.78,3.4,3.78,1.2,7.78,1.7,11.63,2.71a104.36,104.36,0,0,1,12.84,3.89c14,5.72,11.81,24.48,3,30a39.5,39.5,0,0,1-12.74,5.26c-9.74,2-19.56,1.85-28.91-2.2-6.11-2.64-10.41-7-12.11-13.66-.78-3.08-.58-4.79,3.23-4.44C394.52,74.74,397,74.55,399.53,74.55Z" transform="translate(-4.09 -5.54)"/>
    <path fill="#fff" d="M674.51,74.55c2.17,0,4.34.09,6.49,0,2.51-.14,4.1.35,5.41,3C688.58,82,696,83.09,700,80.11c2.73-2,2.59-5.37-.67-6.67s-7.06-1.79-10.56-2.8c-5.25-1.51-10.81-2.47-15.6-4.91C662,60,661.41,45,671.74,37.77c10.15-7.1,33.33-7.18,43.51-.11a16.24,16.24,0,0,1,7.14,11c.35,2,.23,3.09-2.25,3-5.33-.13-10.66.08-16-.14a4.9,4.9,0,0,1-3.22-2.1c-2.52-3.77-6.11-4.59-10.06-3.62-1.46.36-3.37,2-3.59,3.38-.19,1.13,1.51,3.36,2.81,3.79,3.76,1.25,7.77,1.72,11.63,2.7a99,99,0,0,1,11.93,3.51c5.77,2.27,9.77,6.33,10.46,12.84.79,7.47-1.19,13.88-7.61,18.37C705.6,98,682,97.82,671.21,90a19.14,19.14,0,0,1-7.92-12.26c-.46-2.36.19-3.4,2.73-3.26C668.84,74.67,671.67,74.56,674.51,74.55Z" transform="translate(-4.09 -5.54)"/>
    <path fill="#fff" d="M343.47,67.8c-6,0-12,.19-18-.07-3.66-.16-4.16,1.24-3.57,4.42,1.3,7,5.66,11.66,12.64,13.07,6.72,1.36,13.24-1,16.26-6.84,2.35-4.58,6-2.57,9.09-2.73,5.7-.31,5.84,0,3.38,5.27C358.44,91.22,349.74,95.64,338.83,96c-11.24.41-21-3.15-26.43-13.57-6.36-12.16-6.32-24.71.76-36.68,6.83-11.54,21.17-16.22,34-11.56,12.07,4.39,20.56,18.45,19,30.95-.35,2.78-1.82,2.64-3.69,2.63Q353,67.78,343.47,67.8Zm-6.42-8.93c4.15,0,8.31-.08,12.46,0,2.33.06,2.81-.94,2.49-3a15.55,15.55,0,0,0-14.64-12.71C330.09,43,323.19,48.68,322,55.61c-.39,2.26-.07,3.42,2.61,3.31C328.74,58.75,332.9,58.88,337.05,58.87Z" transform="translate(-4.09 -5.54)"/>
    <path fill="#fff" d="M284.82,67.8c-6.32,0-12.65,0-19,0-2.1,0-3.44.21-3.27,3,.39,6.29,5,12.37,11,14,7.57,2.11,14.17-.07,18-6,1.7-2.61,10.62-4.82,13.19-3,.58.41.53,2.35.15,3.34-3.12,8.17-9,13.31-17.43,15.72-16.8,4.83-33-3.55-37.2-19.35-5.3-19.69,3.83-38.41,21.13-42.19,22.67-5,36.71,13.49,35.45,31.83-.07,1-2.3,2.45-3.58,2.5C297.14,67.94,291,67.79,284.82,67.8Zm-7.35-8.92c4.32,0,8.65-.07,13,0,2.29.05,2.83-.84,2.46-3-1.19-6.91-7.72-12.67-14.63-12.73a15.73,15.73,0,0,0-15.29,12c-.64,2.78-.09,4,3,3.81C269.81,58.71,273.65,58.88,277.47,58.87Z" transform="translate(-4.09 -5.54)"/>
    <path fill="#fff" d="M187.92,31.44c5.32,1.84,11.27,3.32,16.63,6,2.69,1.34,4.79,4.6,6.29,7.44,2.75,5.19,1.92,6.22-3.91,6.23-4.16,0-8,.72-10.84-4.4-2.62-4.75-14.85-4.75-18.85-1-2.79,2.62-2.21,6.77,1.71,8.59,3.42,1.59,7.23,2.36,10.9,3.4,4.79,1.37,9.72,2.33,14.38,4,5.87,2.16,9.69,6.31,10.22,12.91.55,6.89-1.59,12.79-7.61,16.28-11.94,6.94-24.41,7.13-36.74,1-5.41-2.67-8.19-7.6-9.11-13.57-.4-2.57.4-3.77,3.15-3.54a34.4,34.4,0,0,0,5.5,0c2.74-.22,4.18.51,5.56,3.38,1.28,2.66,4.27,5.55,7,6.19a30.57,30.57,0,0,0,13.19-.22c2.18-.48,4.67-3.28,5.44-5.57,1.09-3.24-1.48-5.73-4.44-6.87-3.39-1.31-7-2.09-10.51-3.07-4.79-1.35-9.73-2.32-14.35-4.11-6.38-2.48-9.48-7.56-9.55-14.44S165.1,38.43,171.15,36C176.15,34,181.61,33.1,187.92,31.44Z" transform="translate(-4.09 -5.54)"/>
    <path fill="#fff" d="M520.64,63.88c0-8.66.08-17.32,0-26,0-3,.86-4.21,4-4.06a119.5,119.5,0,0,0,13.48,0c3.77-.25,5.69.72,5,4.85a10.7,10.7,0,0,0,.31,2.86,12.3,12.3,0,0,0,2-1.83c4.63-6.54,11.21-7.95,18.56-6.87,1.14.17,2.86,1.84,2.92,2.9.31,5.15.09,10.32.16,15.48,0,2.07-.66,2.67-2.64,1.91a11.38,11.38,0,0,0-2.94-.5c-11.36-1.12-17,3.68-17.38,15.15-.25,7.65-.15,15.32,0,23,.05,2.74-.68,3.88-3.61,3.77-5.32-.19-10.66-.22-16,0-3.25.14-3.93-1.32-3.89-4.16C520.71,81.53,520.64,72.7,520.64,63.88Z" transform="translate(-4.09 -5.54)"/>
    <path fill="#fff" d="M570.1,64c0-8.81.09-17.62-.05-26.43,0-2.77.73-3.85,3.63-3.74,5.31.19,10.64.2,16,0,3-.11,3.61,1.17,3.6,3.83q-.12,26.43,0,52.86c0,3-.87,4.12-4,4-5.14-.21-10.31-.24-15.45,0-3.27.16-3.84-1.23-3.79-4.1C570.19,81.62,570.1,72.81,570.1,64Z" transform="translate(-4.09 -5.54)"/>
    <path fill="#fff" d="M222.62,64.83c0-5.5-.16-11,.06-16.49.13-3.28-1-4.7-4.27-4.21-4.47.67-6.23-1-5.9-5.68.23-3.21,1.12-4.73,4.35-4.18,5.16.88,6.39-1.67,5.8-6.2a41.14,41.14,0,0,1,0-5.49c0-6.31,0-6.36,6.14-6.32,8.74.06,7.26-.84,7.43,7.43,0,.83,0,1.67,0,2.5,0,7.83,0,8.05,7.84,8,3.83,0,4.35,1.62,4.23,4.79-.11,3,.21,5.39-4.25,5.29-7.81-.18-7.82.12-7.82,8,0,8.17,0,16.33,0,24.5,0,6.39,1.69,8,8.08,7.81,2.38-.09,4.55-.37,3.86,3-.56,2.71,2.27,6.79-3.7,7.33-17.22,1.54-21.76-2.32-21.82-19.49C222.61,71.82,222.62,68.32,222.62,64.83Z" transform="translate(-4.09 -5.54)"/>
    <path fill="#fff" d="M370.28,52.67c0-12.33.12-24.67-.07-37-.06-3.56,1.17-4.58,4.58-4.5,11.12.27,9-1,9,8.94.12,23-.1,46,.15,69,0,4.56-1.34,5.64-5.63,5.44-9.37-.43-8,1.13-8-7.88C370.22,75.34,370.28,64,370.28,52.67Z" transform="translate(-4.09 -5.54)"/>
    <path fill="#fff" d="M649.82,125.29c0,3.83.18,7.67,0,11.49-.25,4.2-1.75,7.94-6,9.57-4.92,1.88-9.9,1.8-14.23-1.49-1.24-.94-1.57-3.06-2.32-4.64,1.67.47,3.33,1,5,1.38,2.93.63,6.11,2,8.74,1.38,1.85-.47,3-3.81,4.32-6,.3-.51-.18-1.48-.3-2.24-.58.25-1.17.5-1.74.77-5.86,2.69-11.22,1.85-14.47-2.27-3.8-4.83-3.79-13.85,0-18.75,3.17-4.08,8.48-5.19,14-3,.82.33,2.05.89,2.56.55,4.63-3.15,4.49.1,4.49,3.23q0,5,0,10Zm-4.34-1.9c0-5.42-2.78-9-7.11-9.08-4.73-.14-7.89,3.7-7.8,9.49s2.88,9.42,7.35,9.39S645.5,129.26,645.48,123.39Z" transform="translate(-4.09 -5.54)"/>
    <path fill="#fff" d="M607,125.08c0,4,.19,8-.05,12-.27,4.45-2.14,8.11-6.71,9.55-5,1.58-9.95,1.45-14-2.27-1-.93-1.16-2.83-1.71-4.29,1.57.42,3.14.86,4.72,1.26,2.9.74,6.17,2.6,8.59,1.83,2.16-.69,3.43-4.27,5-6.66.27-.41-.12-1.24-.2-1.88-.56.22-1.13.42-1.68.68-6.21,2.94-11.4,2.24-14.88-2-3.89-4.76-3.89-13.55,0-18.71,3.26-4.31,8.5-5.2,14.79-2.52.57.24,1.22.73,1.73.61,4.49-1,4.48-1,4.49,3.46q0,4.49,0,9Zm-19.12-1.19c.06,5.85,2.85,9.39,7.34,9.31,4.64-.09,7.44-3.83,7.39-9.89,0-5.52-2.74-9-7.1-9.06C590.86,114.14,587.82,118,587.88,123.89Z" transform="translate(-4.09 -5.54)"/>
    <path fill="#fff" d="M469.69,125c-.21,4.48-.24,9-.67,13.44a9,9,0,0,1-7.29,8.46c-4.91,1.23-9.67,1-13.48-2.72-.88-.87-.74-2.79-1.06-4.23,1.42.43,2.84.88,4.27,1.27,2.86.79,6,2.61,8.53,2,2-.49,3.47-3.86,5-6.08.35-.52-.09-1.58-.16-2.39-.67.28-1.37.51-2,.84-5.43,2.75-11.2,1.84-14.46-2.3-3.82-4.85-3.82-13.74,0-18.71,3.3-4.28,9-5.38,14.39-2.75.67.33,1.46,1,2,.87,4.74-1.25,4.74-1.3,4.76,3.31,0,3,0,6,0,9Zm-4.61-1.58c-.06-5.52-3.23-9.27-7.69-9.1s-7.34,3.92-7.28,9.54c.06,5.77,2.92,9.42,7.36,9.39S465.13,129.06,465.07,123.37Z" transform="translate(-4.09 -5.54)"/>
    <path fill="#fff" d="M593.17,17.75A11.12,11.12,0,0,1,581.73,29a11.57,11.57,0,1,1,0-23.14C588.36,5.9,593.25,11,593.17,17.75Z" transform="translate(-4.09 -5.54)"/>
    <path fill="#fff" d="M502.65,123.64c0-3.33,0-6.65,0-10,0-2.51,2.06-3.94,3.27-2.25,2,2.83,3.07.68,4.53,0,3.59-1.56,7.31-1.89,10.3.8,1.81,1.63,2.59.94,4-.07a10.49,10.49,0,0,1,10.9-.74c3.69,1.7,3.52,5.27,3.5,8.64,0,4,.18,8-.1,12-.11,1.6-1.15,4.42-1.92,4.47-3.81.25-2-3-2.15-4.71-.28-3.64,0-7.32-.11-11-.09-3.37-.74-6.45-5.11-6.51-3.8-.05-6.42,2.35-6.68,6.56-.23,3.81.05,7.66-.15,11.47-.09,1.64,1.3,4.69-2.17,4.17-.92-.14-1.94-2.84-2.07-4.43-.31-3.63-.1-7.31-.1-11,0-3.32-.14-6.57-4.64-6.77a6.6,6.6,0,0,0-6.85,6.5c-.27,4,.1,8-.2,12-.1,1.35-1.39,2.61-2.14,3.92-.72-1.37-1.91-2.69-2.06-4.12a83,83,0,0,1-.1-9Z" transform="translate(-4.09 -5.54)"/>
    <path fill="#fff" d="M32,45.78a10.76,10.76,0,0,1-.34-21.51A11,11,0,0,1,42.85,35.11,10.85,10.85,0,0,1,32,45.78Z" transform="translate(-4.09 -5.54)"/>
    <path fill="#fff" d="M160.64,128.71c0-4.83-.1-9.66,0-14.49.1-3.75,1-4.07,4.38-2.21a2.79,2.79,0,0,0,2.15-.12c5.86-2.7,11.58-1.84,15,2.35,4,4.89,4.15,14.22.28,19.19-3.24,4.17-8.91,5.54-14.44,2.68-3.37-1.74-3.08-.13-3,2.14a32.06,32.06,0,0,1-.1,6c-.15.92-1.34,1.68-2.06,2.51-.74-.84-1.49-1.68-2.21-2.54-.08-.1,0-.32,0-.49Q160.64,136.2,160.64,128.71Zm20-4.86c0-5.7-3.18-9.55-7.85-9.58S165,118,164.91,123.8c0,6,3.18,9.9,8.1,9.84C177.61,133.57,180.63,129.68,180.61,123.85Z" transform="translate(-4.09 -5.54)"/>
    <path fill="#fff" d="M654.53,124c.4-7.89,4.56-13,11.43-13.6,6.67-.6,11.32,3.4,12.67,10.62.59,3.17-.05,4.68-3.64,4.49-4.14-.22-8.31.07-12.45-.08-3.2-.12-3.24,1.48-2.35,3.72,1.8,4.57,8.57,6,12.16,2.59.58-.56.8-1.62,1.45-2a17.63,17.63,0,0,1,3.49-1.09c0,1.15.32,2.46-.13,3.41-1.95,4.09-5.67,5.46-9.86,5.49-4.83,0-8.84-1.82-10.87-6.45C655.44,128.91,655.14,126.39,654.53,124ZM667,121.55a6.3,6.3,0,0,0,1.48,0c1.82-.45,3.62-1,5.43-1.47-1.54-1.79-2.79-4.56-4.68-5.11-2.12-.62-5,.39-7.2,1.44-1.08.52-1.36,2.72-2,4.16,1.34.33,2.66.75,4,1A19.35,19.35,0,0,0,667,121.55Z" transform="translate(-4.09 -5.54)"/>
    <path fill="#fff" d="M496.19,124.66c.75,3.05-1.82,7.3,2.46,10,.21.13-.2,2-.55,2.1-1.35.33-3.62.84-4.06.22-2.09-2.9-3.92-1.24-6.18-.47a16.61,16.61,0,0,1-6.81.87c-3.84-.37-6.5-2.46-6.75-6.69s1.79-6.71,5.62-7.75c2.72-.74,5.65-.76,8.28-1.68,1.41-.49,2.39-2.22,3.56-3.38-1.27-1.12-2.39-2.85-3.85-3.23-2.95-.77-5.84-.51-7.9,2.59-.63,1-2.6,1-4,1.48.12-1.36-.14-2.92.44-4.05,1.91-3.74,8.65-5.42,14.49-3.87,4.44,1.17,5.38,4.46,5.21,8.47C496.13,120.91,496.19,122.58,496.19,124.66Zm-5.67-.13c-7.9.24-11.73,2.18-11.41,5.41s2.84,3.76,5.48,3.66c4.37-.17,7.66-3.37,7.27-7.17C491.76,125.58,490.74,124.83,490.51,124.53Z" transform="translate(-4.09 -5.54)"/>
    <path fill="#fff" d="M415.19,123.92c.74,3.3-1.94,7.88,2.69,10.77.2.12-.26,2.05-.56,2.09-1.53.21-3.84.73-4.52,0-1.9-2.15-3.2-1.5-5.33-.48a14.76,14.76,0,0,1-6.74,1.18c-4.11-.16-7-2.3-7.38-6.65s2-6.93,6-7.95c2.57-.65,5.33-.69,7.8-1.56,1.43-.51,2.47-2.13,3.69-3.25-1.37-1.19-2.57-3-4.15-3.44-3-.82-5.83-.24-7.74,2.91-.53.87-2.4.93-3.65,1.35,0-1.33-.36-2.86.17-3.94,1.88-3.85,8.32-5.57,14.34-4.18,4.79,1.11,5.68,4.52,5.38,8.74C415.11,120.8,415.19,122.13,415.19,123.92Zm-13,10.09a38.39,38.39,0,0,0,4-.94c3.32-1.27,5.3-3.74,4.39-7.21-.19-.71-3.78-.63-5.81-.72a4.36,4.36,0,0,0-2.85.62c-1.45,1.3-3.84,3.2-3.58,4.36C398.76,131.77,401.14,133,402.23,134Z" transform="translate(-4.09 -5.54)"/>
    <path fill="#fff" d="M262.66,125.47c-2,0-4,0-6,0-3.79.1-4.39,1.14-2.55,4.36a7.63,7.63,0,0,0,12.31,1.24c.55-.61.8-1.7,1.43-1.95a12.1,12.1,0,0,1,3.33-.38,9.17,9.17,0,0,1-.28,3c-2.42,5.22-9.64,7.36-15.59,4.73-5.76-2.55-8.61-10.62-6.25-17.72a12,12,0,0,1,14.15-8.16c5.29,1.05,9.9,7.41,9,12.7a3.54,3.54,0,0,1-2.54,2,54.75,54.75,0,0,1-7,.1Zm-2.86-3.92a10.45,10.45,0,0,0,2.46,0c1.68-.42,3.32-1,5-1.54-1.37-1.71-2.42-4-4.19-5a6.58,6.58,0,0,0-5.61.06c-1.76,1-2.78,3.35-4.12,5.11,1.67.46,3.34.95,5,1.36A6.28,6.28,0,0,0,259.79,121.55Z" transform="translate(-4.09 -5.54)"/>
    <path fill="#fff" d="M694.54,110.31c7,.3,8.93,2.34,9,9.57,0,3.17-.07,6.33,0,9.49a19,19,0,0,0,.81,3.8c.32,1.28.71,2.54,1.07,3.82-1.56-.08-3.95.44-4.51-.36-1.76-2.45-3-1-4.92-.43a20.08,20.08,0,0,1-7.75,1.09c-3.62-.3-6.12-2.35-6.42-6.4s1.49-6.79,5.33-7.91c2.54-.74,5.33-.71,7.79-1.61,1.58-.58,2.77-2.21,4.13-3.37-1.52-1.22-2.87-3.06-4.59-3.5a6,6,0,0,0-7.21,3c-.47.82-2.4.81-3.66,1.18,0-1.22-.29-2.6.16-3.64C685.22,111.78,689.3,110.09,694.54,110.31Zm-4.59,23.36c6.15-.08,9.36-2.95,9.06-6.85-.06-.8-1.18-2.15-1.87-2.18-6.11-.3-11,1.95-10.41,4.94C687.08,131.41,689.28,132.88,689.95,133.68Z" transform="translate(-4.09 -5.54)"/>
    <path fill="#fff" d="M230,124c0,8.09-5.06,13.54-12.66,13.63s-12.62-5.23-12.72-13.49c-.11-8.47,5-14,12.83-13.83C225.13,110.42,230,115.76,230,124Zm-4.78-.18c0-5.64-3.4-9.56-8.1-9.45s-8,4.24-7.94,9.73,3.73,9.62,8.22,9.55S225.29,129.38,225.25,123.8Z" transform="translate(-4.09 -5.54)"/>
    <path fill="#fff" d="M362,123.74c.09,8.14-4.85,13.67-12.39,13.87s-12.84-5.17-13-13.24c-.16-8.53,4.75-14,12.6-14.06C356.9,110.27,361.94,115.57,362,123.74Zm-4.77.3c0-5.69-3.18-9.66-7.85-9.7s-8.15,4-8.19,9.51,3.53,9.7,8,9.77S357.22,129.58,357.25,124Z" transform="translate(-4.09 -5.54)"/>
    <path fill="#fff" d="M286.76,109.45a74.65,74.65,0,0,1,8.06,5c.77.6.43,2.6.6,4-1.42-.42-2.88-.74-4.26-1.27-2.17-.84-4.24-2.33-6.45-2.55-1.34-.14-2.88,1.59-4.33,2.48,1.15,1.21,2.08,2.91,3.49,3.53,2.41,1.05,5.13,1.36,7.68,2.1,3.57,1,5.86,3.17,5.59,7.17-.26,3.82-2.48,5.94-6.06,7-6.48,1.93-13,.23-15.05-4.23-.48-1-.28-2.4-.39-3.61,1.4.43,3.42.42,4.08,1.36,2.61,3.71,6.06,3.82,9.73,2.68a4.4,4.4,0,0,0,2.7-3c.06-1.07-1.24-2.7-2.36-3.26a31.2,31.2,0,0,0-6.2-1.82c-6.43-1.67-8.51-3.87-7.84-8.34C276.38,112.53,280.47,110.07,286.76,109.45Z" transform="translate(-4.09 -5.54)"/>
    <path fill="#fff" d="M310.66,138.74a107.09,107.09,0,0,1-9.27-5.74c-.8-.6-.54-2.62-.76-4,1.49.53,3.49.63,4.37,1.68,2.84,3.4,6.25,3.59,9.89,2.22a4.61,4.61,0,0,0,2.41-3.21c.11-.89-1.16-2.48-2.16-2.87-2.62-1-5.43-1.51-8.16-2.27-3.66-1-6.55-2.92-6.22-7.22s3.4-6.16,7.4-6.77c5.68-.87,10.28.54,11.93,4,.52,1.09.13,2.61.15,3.94-1.3-.43-3.19-.47-3.79-1.37-2.23-3.31-5.27-3.24-8.41-2.41a4.21,4.21,0,0,0-2.44,2.68c-.17.65,1,2.13,1.94,2.48a78.52,78.52,0,0,0,7.62,2.25c3.9,1.09,7.33,2.54,7,7.57-.23,4.07-2.79,6.62-7.88,7.57-1,.18-2,.23-3,.34Z" transform="translate(-4.09 -5.54)"/>
    <path fill="#fff" d="M367,123.9c0-3.49,0-7,0-10.47,0-2.86,2.72-3.4,3.36-2.09,1.44,2.92,2.3,1.23,3.73.43,7.31-4.1,14.08-.54,14.42,7.67.2,4.65.2,9.32-.07,14-.07,1.15-1.51,2.23-2.32,3.34-.65-1.06-1.81-2.1-1.87-3.19-.22-4.14-.11-8.31-.09-12.47,0-3.23-.5-6.06-4.4-6.67s-7.46,1.54-8,5.66c-.61,4.41-.28,8.94-.55,13.41-.07,1.1-.89,2.15-1.36,3.22-.93-.77-2.6-1.48-2.67-2.32C366.78,130.9,367,127.4,367,123.9Z" transform="translate(-4.09 -5.54)"/>
    <path fill="#fff" d="M556.67,123.25c0-3.33-.08-6.66,0-10,.09-2.78,2.4-3.28,3.56-1.66,1.38,1.91,1.82,1.17,3.2.4,8.13-4.52,14.64-.7,14.72,8.57,0,3.83.2,7.67-.09,11.48-.12,1.6-1.09,4.36-1.94,4.47-3.41.42-2.06-2.58-2.15-4.23-.2-3.65-.11-7.32-.05-11s-.77-6.72-5.2-7a6.84,6.84,0,0,0-7.52,6.44c-.4,4-.15,8-.21,12,0,1,.24,2.17-.21,2.93a2.61,2.61,0,0,1-2.36,1,3.4,3.4,0,0,1-1.72-2.38C556.55,130.58,556.66,126.91,556.67,123.25Z" transform="translate(-4.09 -5.54)"/>
    <path fill="#fff" d="M236.62,125.82c0-2.33,0-4.66,0-7,0-2,.32-4.15-2.84-4.14-.55,0-1.55-1.21-1.52-1.83s1-1.86,1.58-1.85c3.23.05,2.61-2.22,2.84-4.14.52-4.44,3.07-6.63,7.36-6.07,1,.13,1.84,1.29,2.76,2-.74.62-1.53,1.2-2.22,1.88-1.21,1.19-2.36,2.45-3.53,3.68,1,.86,2.08,1.7,3.09,2.59.65.57,1.24,1.2,1.85,1.8-.68.69-1.37,2-2,2-3.11-.1-3,1.86-2.93,4,0,5,.13,10-.08,15,0,1.06-1.27,2.08-1.95,3.12-.78-1-2.11-1.88-2.24-2.93a65.16,65.16,0,0,1-.11-8Z" transform="translate(-4.09 -5.54)"/>
    <path fill="#fff" d="M190.1,123.84c0-3.49-.1-7,.08-10.46a3.31,3.31,0,0,1,1.62-2.33c.46-.23,2.12.61,2.18,1.1.3,2.69,1.24,2.14,2.57.72a3,3,0,0,1,1.14-.93,37.82,37.82,0,0,1,5.17-1.23c.22,0,1.07,1.71.89,1.89a11.85,11.85,0,0,1-3.79,2.94c-3.93,1.44-5.12,4.54-5.36,8.18-.22,3.31.09,6.65-.21,9.95-.1,1.08-1.36,2.05-2.08,3.08-.74-1-2-1.91-2.1-2.94C189.93,130.49,190.1,127.16,190.1,123.84Z" transform="translate(-4.09 -5.54)"/>
    <path fill="#fff" d="M710,123.94c0-3.48-.1-7,.07-10.44,0-.88,1-1.71,1.5-2.56.83.68,1.63,1.43,2.52,2,.51.34,1.35.76,1.75.57,1.74-.85,3.29-2.12,5.08-2.8.74-.28,1.9.55,2.87.88-.43,1.1-.69,3.06-1.31,3.19-9.35,1.85-7.83,9.2-8.32,15.7-.16,2.12-1.34,6-1.82,6-4.32-.32-1.84-3.88-2.27-6.05s-.09-4.29-.09-6.45Z" transform="translate(-4.09 -5.54)"/>
    <path fill="#fff" d="M426.18,119.15c0,4.81.12,9.62-.09,14.41,0,1.08-1.23,2.12-1.89,3.17-.7-1-2-2-2-3q-.23-14.66,0-29.33c0-1.16,1.37-2.3,2.1-3.45.63,1.1,1.76,2.18,1.8,3.3C426.3,109.2,426.18,114.17,426.18,119.15Z" transform="translate(-4.09 -5.54)"/>
    <path fill="#fff" d="M550.18,124.06c0,3.31.14,6.63-.09,9.93-.07,1-1.2,1.84-1.84,2.75-.86-.88-2.45-1.74-2.48-2.64q-.32-10.17,0-20.36c0-1,1.56-1.87,2.39-2.8.67.9,1.87,1.76,1.93,2.69C550.32,117.09,550.18,120.58,550.18,124.06Z" transform="translate(-4.09 -5.54)"/>
    <path fill="#fff" d="M331.47,124.2c0,3.33.15,6.67-.1,10-.07.9-1.37,1.7-2.1,2.55-.72-.83-2-1.64-2.07-2.49-.17-7-.15-14,0-21,0-.79,1.14-1.56,1.75-2.34.84.76,2.34,1.47,2.39,2.28.26,3.64.11,7.32.11,11Z" transform="translate(-4.09 -5.54)"/>
    <path fill="#fff" d="M547,106.73c-.43-1.16-1.3-2.38-1.14-3.45.13-.88,1.49-1.58,2.31-2.36.68,1.06,1.76,2.06,1.92,3.19.11.82-1,1.81-1.54,2.73Z" transform="translate(-4.09 -5.54)"/>
    <path fill="#fff" d="M332.8,103.67,329,106.41c-.62-.91-1.73-1.83-1.73-2.74s1.11-1.83,1.74-2.74Z" transform="translate(-4.09 -5.54)"/>
    <path fill="#fff" d="M87.36,112.1A23,23,0,0,1,64.28,89,23.46,23.46,0,0,1,87.63,65.9c12.7.16,23.36,10.89,23.17,23.34A23.18,23.18,0,0,1,87.36,112.1Zm.28-29.62a6.5,6.5,0,0,0-6.83,6.39,6.57,6.57,0,0,0,6.31,6.95,6.7,6.7,0,0,0,7.12-6.68A6.53,6.53,0,0,0,87.64,82.48Z" transform="translate(-4.09 -5.54)"/>
  </g>
</svg>
